<svg id="Layer_1" data-name="Layer 1" xmlns="http://www.w3.org/2000/svg" viewBox="0 0 146.5 20.875" xmlns:xlink="http://www.w3.org/1999/xlink">
 <title>
  jackwills-logo-2021
 </title>
 <g id="Layer_2" data-name="Layer 2">
  <g id="Layer_1-2" data-name="Layer 1-2">
   <path d="M22.045.99H19.8l-8.03,18.76-.06.14h3.38l2.27-5.39h7.34l2.34,5.25.08.19h3.37l-8.41-18.9Zm1.29,10.58h-4.71l2.25-5.45Z">
   </path>
   <path d="M40.775,17.07a7,7,0,0,1-5-1.84,6.25,6.25,0,0,1-1.94-4.72,6.29,6.29,0,0,1,2-4.73,7,7,0,0,1,5-1.9,12.44,12.44,0,0,1,6.11,1.79l.48.28V2.37l-.2-.09A16.93,16.93,0,0,0,40.675.75a10.15,10.15,0,0,0-7.25,2.81,9.26,9.26,0,0,0-2.95,7,9.65,9.65,0,0,0,4.78,8.35,10.68,10.68,0,0,0,5.37,1.22,14.71,14.71,0,0,0,5.28-.91,11.77,11.77,0,0,0,1.53-.7l.17-.09V14.75l-.5.32A11.61,11.61,0,0,1,40.775,17.07Z">
   </path>
   <polygon points="65.375 0.99 61.225 0.99 53.995 8.85 53.995 0.99 50.725 0.99 50.725 19.92 53.995 19.92 53.995 11.33 62.795 19.83 62.885 19.92 67.385 19.92 57.155 9.97 65.375 0.99">
   </polygon>
   <polygon points="95.645 13.02 90.855 1.19 90.775 0.99 87.875 0.99 83.025 13.02 78.295 1.19 78.215 0.99 74.895 0.99 82.425 19.75 82.505 19.95 83.505 19.95 89.305 5.66 94.975 19.75 95.055 19.95 96.065 19.95 103.645 1.12 103.705 0.99 100.405 0.99 95.645 13.02">
   </polygon>
   <rect x="105.495" y="0.99" width="3.27" height="18.98">
   </rect>
   <path d="M142.175,9.49l-2-1.18a7.48,7.48,0,0,1-1.87-1.44,2,2,0,0,1-.54-1.33,1.48,1.48,0,0,1,.69-1.25,3.21,3.21,0,0,1,1.92-.54,5.45,5.45,0,0,1,3.37,1.24l.1.08,1.19-2.85-.22-.13a7.72,7.72,0,0,0-4.38-1.34,6,6,0,0,0-4.12,1.43,4.85,4.85,0,0,0-1.6,3.75,4.68,4.68,0,0,0,.85,2.74,9.35,9.35,0,0,0,2.76,2.33l2,1.21c1.49.93,2.25,1.91,2.25,2.89a1.84,1.84,0,0,1-.7,1.47,2.8,2.8,0,0,1-1.84.61,5.75,5.75,0,0,1-3.93-1.73l-.1-.1-1.23,2.94.16.11a8.38,8.38,0,0,0,5.13,1.73,5.74,5.74,0,0,0,4-1.46,5,5,0,0,0,1.57-3.81C145.675,12.69,144.495,10.88,142.175,9.49Z">
   </path>
   <path d="M6.825.99h-.2v13.1a3.08,3.08,0,0,1-1.74,2.78,2.7,2.7,0,0,1-3.18-1L.625,18.75a5.19,5.19,0,0,0,3.56,1.52h0a5,5,0,0,0,1.56-.22h0a5.66,5.66,0,0,0,4-5.13V.99H6.825Z">
   </path>
   <polygon points="115.545 0.97 112.275 0.97 112.275 19.95 121.115 19.95 121.115 16.92 115.545 16.92 115.545 0.97">
   </polygon>
   <polygon points="126.995 0.97 123.725 0.97 123.725 19.95 132.565 19.95 132.565 16.92 126.995 16.92 126.995 0.97">
   </polygon>
  </g>
 </g>
</svg>