<svg version="1.1" id="Layer_1" xmlns:x="ns_extend;" xmlns:i="ns_ai;" xmlns:graph="ns_graphs;" xmlns="http://www.w3.org/2000/svg" xmlns:xlink="http://www.w3.org/1999/xlink" x="0px" y="0px" viewBox="0 0 386.2 52" style="enable-background:new 0 0 386.2 52;" xml:space="preserve">
 <style type="text/css">
  .st0{fill:#FFFFFF;}
 </style>
 <metadata>
  <sfw xmlns="ns_sfw;">
   <slices>
   </slices>
   <sliceSourceBounds bottomLeftOrigin="true" height="52" width="386.2" x="-240.6" y="0.6">
   </sliceSourceBounds>
  </sfw>
 </metadata>
 <g id="Layer_2_1_">
  <g id="Layer_1-2">
   <path class="st0" d="M57,0.7h-6l-21.4,50L29.5,51h9l6-14.4h19.5l6.2,14l0.2,0.5h9L57.1,0.8L57,0.7z M60.5,28.8H47.9l6-14.5
			L60.5,28.8z">
   </path>
   <path class="st0" d="M106.9,43.5c-4.9,0.2-9.7-1.6-13.3-4.9c-3.4-3.3-5.3-7.8-5.2-12.6c-0.1-4.8,1.8-9.3,5.3-12.6
			c3.6-3.4,8.4-5.2,13.3-5.1c5.7,0.2,11.4,1.8,16.3,4.8l1.3,0.7V4.3l-0.5-0.2c-5.5-2.5-11.4-3.9-17.4-4.1
			c-7.2-0.2-14.1,2.5-19.3,7.5c-5.2,4.8-8,11.6-7.9,18.6c0,9.2,4.8,17.6,12.7,22.2c4.4,2.3,9.3,3.4,14.3,3.2
			c4.8,0.1,9.6-0.8,14.1-2.4c1.4-0.5,2.8-1.1,4.1-1.9l0.5-0.2v-9.8l-1.3,0.9C118.8,41.5,112.9,43.4,106.9,43.5z">
   </path>
   <polygon class="st0" points="172.4,0.7 161.4,0.7 142.1,21.6 142.1,0.7 133.4,0.7 133.4,51.1 142.1,51.1 142.1,28.2 165.6,50.8 
			165.8,51.1 177.8,51.1 150.6,24.6 		">
   </polygon>
   <polygon class="st0" points="253.1,32.7 240.3,1.2 240.1,0.7 232.4,0.7 219.5,32.7 206.9,1.2 206.6,0.7 197.8,0.7 217.9,50.6 
			218.1,51.1 220.7,51.1 236.2,13.1 251.3,50.6 251.5,51.1 254.2,51.1 274.4,1 274.5,0.7 265.7,0.7 		">
   </polygon>
   <rect x="279.3" y="0.7" class="st0" width="8.7" height="50.5">
   </rect>
   <path class="st0" d="M377,23.3l-5.3-3.1c-1.9-1-3.5-2.3-5-3.8c-0.9-1-1.4-2.2-1.4-3.5c0-1.4,0.7-2.6,1.8-3.3
			c1.5-1,3.3-1.5,5.1-1.4c3.3,0.1,6.4,1.2,9,3.3l0.3,0.2l3.2-7.6L384,3.6c-3.4-2.3-7.5-3.6-11.7-3.6c-4-0.2-7.9,1.2-11,3.8
			c-2.8,2.5-4.4,6.2-4.3,10c0,2.6,0.8,5.2,2.3,7.3c2,2.5,4.5,4.6,7.4,6.2l5.3,3.2c4,2.5,6,5.1,6,7.7c0,1.5-0.7,3-1.9,3.9
			c-1.4,1.1-3.1,1.7-4.9,1.6c-4-0.1-7.7-1.8-10.5-4.6l-0.3-0.3l-3.3,7.8l0.4,0.3c3.9,3,8.7,4.6,13.7,4.6c3.9,0.1,7.7-1.3,10.7-3.9
			c2.8-2.6,4.3-6.3,4.2-10.1C386.3,31.8,383.2,27,377,23.3z">
   </path>
   <path class="st0" d="M16.5,0.7H16v34.9c0,3.2-1.8,6-4.6,7.4c-3.1,1.2-6.6,0.1-8.5-2.7L0,47.9c2.5,2.5,5.9,4,9.5,4l0,0
			c1.4,0,2.8-0.2,4.2-0.6l0,0c6.1-1.9,10.3-7.3,10.7-13.7V0.7H16.5z">
   </path>
   <polygon class="st0" points="306.1,0.6 297.4,0.6 297.4,51.1 320.9,51.1 320.9,43.1 306.1,43.1 		">
   </polygon>
   <polygon class="st0" points="336.6,0.6 327.8,0.6 327.8,51.1 351.4,51.1 351.4,43.1 336.6,43.1 		">
   </polygon>
  </g>
 </g>
</svg>